<svg width="30" height="30" viewBox="0 0 30 30" fill="none" xmlns="http://www.w3.org/2000/svg">
<g clip-path="url(#clip0_11_66)">
<mask id="mask0_11_66" style="mask-type:luminance" maskUnits="userSpaceOnUse" x="0" y="0" width="30" height="30">
<path d="M15 30C23.2843 30 30 23.2843 30 15C30 6.71573 23.2843 0 15 0C6.71573 0 0 6.71573 0 15C0 23.2843 6.71573 30 15 30Z" fill="white"/>
</mask>
<g mask="url(#mask0_11_66)">
<path d="M-7.5 0H37.5V30H-7.5V0Z" fill="#006C35"/>
</g>
<mask id="mask1_11_66" style="mask-type:luminance" maskUnits="userSpaceOnUse" x="0" y="0" width="30" height="30">
<path d="M15 30C23.2843 30 30 23.2843 30 15C30 6.71573 23.2843 0 15 0C6.71573 0 0 6.71573 0 15C0 23.2843 6.71573 30 15 30Z" fill="white"/>
</mask>
<g mask="url(#mask1_11_66)">
<path fill-rule="evenodd" clip-rule="evenodd" d="M20.8122 21.97C20.8128 21.9697 20.8133 21.9704 20.8139 21.97C21.3618 21.997 21.8765 21.9753 22.4247 22.0019C22.5114 22.0758 22.468 22.2448 22.4115 22.2759C22.4088 22.277 22.4047 22.2788 22.4021 22.2794C22.4001 22.28 22.3965 22.2794 22.3945 22.2794C22.3925 22.2794 22.3892 22.28 22.3872 22.2794C22.2088 22.275 22.1059 22.2709 21.9278 22.2665C21.9275 22.2574 21.9264 22.248 21.924 22.2401C21.8818 22.115 21.576 22.1232 21.5039 22.2214C21.503 22.2228 21.501 22.2255 21.5001 22.2269C21.4989 22.229 21.4974 22.2325 21.4966 22.2346C21.4954 22.2369 21.4936 22.2413 21.4928 22.2439C21.4916 22.2474 21.4913 22.253 21.4907 22.2571C21.4904 22.2615 21.4887 22.2674 21.489 22.272C21.2484 22.3007 21.0319 22.2641 20.7914 22.2551C20.7207 22.1671 20.729 22.0084 20.8122 21.97ZM20.557 20.6144C20.5567 20.6147 20.5555 20.6159 20.5552 20.6165C20.1996 20.7076 20.2107 21.0767 20.4389 21.2387C16.6833 21.2387 10.9198 21.1752 9.68402 21.1752C8.99228 21.1752 6.80468 21.0926 6.76253 21.0926C7.23188 21.7787 7.91153 21.9184 8.8007 21.9325C10.4689 21.9325 18.198 21.912 20.3976 21.912C20.2411 22.1897 20.4116 22.6365 20.5344 22.7182C20.537 22.72 20.5411 22.7226 20.5437 22.7238C20.5484 22.7261 20.5543 22.7285 20.5587 22.7294C20.5602 22.73 20.5631 22.7294 20.5643 22.7294C20.7102 22.7639 20.774 22.6585 20.8233 22.5814C21.0594 22.6022 22.3889 22.6216 22.5108 22.5794C22.5111 22.5794 22.5122 22.5779 22.5125 22.5776C22.5948 22.6989 22.6766 22.8132 22.833 22.7933C23.1073 22.7344 23.3232 22.7048 23.3299 22.1481C23.3299 22.1481 23.3021 21.2001 22.6795 21.2596C22.5321 21.2818 22.1188 21.3234 22.1188 21.3234C21.6404 21.2663 21.2897 21.2604 20.7518 21.2408C20.8016 21.1778 20.8892 20.9227 20.782 20.8301C20.7538 20.807 20.7123 20.7941 20.6545 20.7984C20.6539 20.7984 20.6531 20.7984 20.6525 20.7984C20.6516 20.7981 20.6496 20.7984 20.6487 20.7984C20.6484 20.7981 20.6472 20.7967 20.6469 20.7964C20.6454 20.7958 20.6428 20.7955 20.6413 20.7946C20.6384 20.7926 20.6346 20.7885 20.632 20.7853C20.6314 20.7844 20.6288 20.7823 20.6282 20.7815C20.6009 20.7419 20.5863 20.6449 20.5681 20.6204C20.5678 20.62 20.5666 20.6186 20.5663 20.6183C20.566 20.6183 20.5646 20.6165 20.5643 20.6165C20.5637 20.6159 20.5614 20.6147 20.5608 20.6145C20.5605 20.6145 20.559 20.6145 20.5588 20.6145C20.5584 20.6147 20.5573 20.6144 20.557 20.6144ZM23.7694 14.1106C23.7249 14.112 23.678 14.1182 23.61 14.1237C23.5365 14.1393 23.511 14.1715 23.4975 14.2606C23.5028 14.3956 23.5854 14.3889 23.6701 14.4425C23.719 14.5046 23.7509 14.5611 23.6663 14.6637C23.586 14.7372 23.5289 14.7776 23.4489 14.8512C23.4111 14.9156 23.3874 15.0149 23.5031 15.046C23.717 15.1064 24.2118 14.7847 24.2118 14.7779C24.2921 14.7178 24.2654 14.6036 24.2586 14.6036C24.2121 14.5503 24.1066 14.5822 24.0357 14.5737C24.002 14.5737 23.891 14.5573 23.9437 14.4592C23.9877 14.3983 24.0041 14.3619 24.0336 14.2866C24.067 14.2134 24.0378 14.1639 23.9176 14.1237C23.8564 14.1126 23.8139 14.1091 23.7694 14.1106ZM16.0798 13.8237C16.0538 13.8223 16.0256 13.8264 15.9972 13.8404C15.9916 13.8404 15.745 14.0075 15.6656 14.1237C15.6169 14.1607 15.6225 14.1926 15.6374 14.2568C15.6752 14.3438 15.7417 14.3165 15.8173 14.2755C15.9175 14.2617 15.9661 14.3276 15.9579 14.4481C15.9117 14.5984 15.9785 14.6543 15.9785 14.6637C15.9785 14.6731 16.0752 14.756 16.1885 14.6901C16.4279 14.5986 16.577 14.5096 16.9125 14.4366C17.0004 14.4352 16.9954 14.1997 16.8562 14.1911C16.6746 14.2002 16.507 14.2096 16.3254 14.3522C16.2137 14.3783 16.1947 14.3104 16.1698 14.2491C16.1414 14.098 16.2336 13.9913 16.2149 13.8779C16.2199 13.8829 16.1583 13.8278 16.0798 13.8237ZM4.07021 13.0863C4.05521 13.0866 4.02536 13.1312 3.98585 13.1819C3.63335 13.7435 3.602 14.5817 3.79655 14.8319C3.89996 14.9499 4.07021 15.0021 4.19585 14.9649C4.41734 14.8691 4.5146 14.4205 4.46219 14.2562C4.38839 14.1407 4.32974 14.1223 4.25594 14.2207C4.10009 14.5371 4.03505 14.3206 4.02158 14.1437C3.99755 13.8085 4.03004 13.4997 4.0664 13.2551C4.08596 13.1297 4.08512 13.0858 4.07021 13.0863ZM13.4267 12.6794C13.4338 12.6788 13.4399 12.6794 13.4473 12.6794H13.4511C13.6898 12.7441 14.0417 12.7509 14.3472 12.7826C14.5963 12.7984 14.719 12.9932 14.4861 13.0749C14.2561 13.1537 14.0353 13.2152 14.0341 13.5475C14.0645 13.7121 14.0581 13.7985 14.0323 13.8381C14.0302 13.841 14.027 13.8452 14.0247 13.8475C14.0244 13.8478 14.0233 13.8489 14.023 13.8492C14.0226 13.8498 14.0214 13.851 14.0211 13.8513C14.0205 13.8516 14.0194 13.8527 14.0191 13.853L14.0173 13.8551C14.0168 13.8554 14.0141 13.8566 14.0136 13.8569C14.0103 13.8589 14.0059 13.8612 14.0024 13.8624C13.9992 13.8636 13.9945 13.8639 13.991 13.8644C13.9365 13.8724 13.8571 13.8203 13.7979 13.7894C13.6561 13.6875 13.2582 13.4411 13.2017 12.9117C13.1935 12.7925 13.2829 12.6893 13.4267 12.6794ZM9.59582 12.1562C9.50297 12.1626 9.41981 12.2124 9.45731 12.3437C9.45167 12.4389 9.72035 12.5546 9.73646 12.7749C9.77516 12.8657 9.6791 13.1567 9.75905 13.1836C9.83261 13.2141 9.93455 12.9827 9.97295 12.7676C9.99431 12.6495 9.88064 12.2373 9.68786 12.1638C9.65822 12.1574 9.62687 12.1541 9.59582 12.1562ZM22.3945 11.5787C22.2893 11.5916 22.1891 11.6912 22.2351 11.8506C22.2064 11.944 22.3781 12.2713 22.4226 12.445C22.4628 12.5686 22.371 12.9182 22.4545 12.955C22.5316 12.9961 22.7337 12.7473 22.7264 12.4357C22.7487 12.2754 22.6693 11.6845 22.4677 11.5843C22.4446 11.5778 22.4188 11.5758 22.3945 11.5787ZM7.32506 11.3429C7.38305 11.3435 7.44431 11.3722 7.4768 11.4536C7.50614 11.528 7.4783 11.6063 7.44314 11.645C7.44281 11.6453 7.44344 11.6464 7.44314 11.6467C7.44251 11.6476 7.442 11.6496 7.44137 11.6505C7.4165 11.6825 7.3292 11.6693 7.2668 11.6693C7.1918 11.6657 7.1546 11.6534 7.10945 11.5922C7.08776 11.5242 7.1537 11.4575 7.18244 11.4068C7.18274 11.4062 7.18418 11.4053 7.18445 11.4047C7.18766 11.4 7.19261 11.3945 7.19762 11.3897C7.21991 11.3693 7.25885 11.3499 7.30076 11.345C7.30865 11.3438 7.3166 11.3429 7.32506 11.3429ZM5.40491 11.0766C4.81256 11.0874 3.94481 11.8535 3.92192 12.2786C4.54712 11.9783 5.16116 11.6891 5.79692 11.3786C5.69438 11.2254 5.79077 11.0874 5.40491 11.0766ZM15.4195 10.8704C15.4663 10.8656 15.5276 10.8815 15.5865 10.9154C15.6717 10.9649 15.7245 11.0393 15.7177 11.0936C15.7174 11.0951 15.718 11.0977 15.7177 11.0991C15.7174 11.1006 15.7145 11.1035 15.7139 11.1047C15.7136 11.1062 15.7127 11.1091 15.7121 11.1106C15.7118 11.1114 15.7107 11.1132 15.7101 11.1141C15.7098 11.115 15.7089 11.1171 15.7083 11.1179C15.7054 11.1226 15.701 11.1272 15.6972 11.1311C15.6562 11.1695 15.5613 11.1639 15.4722 11.1123C15.3875 11.0634 15.3351 10.9881 15.3409 10.9342C15.3409 10.9328 15.3424 10.9301 15.3427 10.9286C15.3442 10.9219 15.3468 10.9157 15.3503 10.9099C15.3515 10.9079 15.3524 10.9043 15.3538 10.9022C15.3541 10.9019 15.3556 10.9008 15.3559 10.9005C15.3582 10.8975 15.362 10.8935 15.3652 10.8911C15.3788 10.8803 15.3981 10.8727 15.4195 10.8704ZM22.6171 10.7499C22.611 10.7487 22.604 10.749 22.5966 10.7516C22.5966 10.7516 21.4529 11.5652 21.4248 11.5937C21.3114 11.6944 21.3679 12.0489 21.4248 12.0079C21.5068 12.0395 22.6579 11.2594 22.6359 11.168C22.6863 11.1709 22.7103 10.7666 22.6171 10.7499ZM14.3391 10.4104C14.2945 10.4183 14.2515 10.4549 14.2359 10.5155C14.226 10.5551 14.2549 10.621 14.2189 10.6412C14.1984 10.662 14.1182 10.6497 14.1217 10.5398C14.1217 10.5047 14.0959 10.4663 14.0803 10.4443C14.0645 10.4341 14.056 10.4312 14.0279 10.4312C13.9934 10.4327 13.9922 10.4417 13.9734 10.4704C13.9655 10.5 13.9547 10.529 13.9547 10.5624C13.9503 10.6014 13.9365 10.6148 13.9078 10.6204C13.8756 10.6204 13.8832 10.6239 13.8572 10.6073C13.8416 10.5905 13.8217 10.5838 13.8217 10.5548C13.8217 10.5249 13.8155 10.4771 13.8064 10.4573C13.793 10.4393 13.7695 10.4317 13.7446 10.4256C13.6098 10.4259 13.6019 10.5791 13.6096 10.6374C13.5996 10.6483 13.5925 10.9248 13.7766 11.001C14.0232 11.1188 14.6115 11.0496 14.4682 10.6693C14.4682 10.6339 14.4589 10.5158 14.4553 10.4836C14.4301 10.425 14.3835 10.4027 14.3391 10.4104ZM12.2877 10.0881C12.2844 10.0892 12.2812 10.0919 12.2783 10.0937C12.2768 10.0946 12.2742 10.0963 12.2727 10.0975C12.2487 10.1154 12.22 10.1573 12.1564 10.2024C12.0492 10.3245 12.0298 10.4095 12.0366 10.6542C12.0424 10.6802 12.2402 11.2298 12.4078 11.6162C12.5205 12.0176 12.6252 12.4776 12.5484 12.9118C12.2842 13.486 11.7527 14.0007 11.2397 14.2805C10.9784 14.3643 10.7525 14.3356 10.6921 14.2785C10.6916 14.2782 10.6907 14.2773 10.6904 14.2767C10.5401 14.176 10.5369 13.9963 10.5459 13.9656C10.5459 13.9653 10.5459 13.9638 10.5459 13.9636C10.5463 13.9632 10.5474 13.9621 10.5478 13.9618C10.9808 13.6603 11.475 13.4162 11.8623 12.6024C11.9766 12.2913 12.0114 12.1047 11.8978 11.6236C11.8535 11.4446 11.7987 11.2969 11.6766 11.1698C11.6768 11.1695 11.678 11.1683 11.6783 11.168C11.7521 11.1329 11.9432 11.2735 11.9728 11.185C11.9276 10.9553 11.7721 10.6471 11.5959 10.4892C11.4416 10.3491 11.274 10.333 11.1328 10.461C10.9737 10.5495 10.94 10.8674 11.0165 11.1454C11.1015 11.3549 11.3311 11.3915 11.4946 11.8131V11.8149C11.4981 11.8412 11.5509 12.1295 11.4682 12.2461C11.4015 12.4544 10.543 13.1318 10.4821 13.1725C10.4815 13.1731 10.4771 13.1754 10.4766 13.176C10.4763 13.1766 10.4748 13.1778 10.4745 13.178C10.4745 13.178 10.473 13.1795 10.4727 13.1798C10.4724 13.1801 10.4709 13.1816 10.4709 13.1819C10.4706 13.1819 10.4692 13.1819 10.4689 13.1819C10.4689 13.1819 10.4674 13.1819 10.4671 13.1819C10.4669 13.1816 10.4657 13.1801 10.4651 13.1798C10.4654 13.1798 10.4651 13.178 10.4651 13.178C10.4648 13.1774 10.4637 13.1748 10.4634 13.1742C10.4607 13.1573 10.4654 13.1141 10.4634 13.0448C10.4578 12.9179 10.5102 12.6311 10.5064 12.5819C10.5064 12.5816 10.5064 12.5801 10.5064 12.5798C10.5061 12.5795 10.5049 12.5783 10.5046 12.578C10.5046 12.5777 10.5046 12.5763 10.5046 12.576C10.5041 12.576 10.5029 12.576 10.5026 12.576C10.219 12.7594 10.1253 13.321 10.0734 13.4874C9.35471 13.984 8.53886 14.3531 8.06891 14.8562C7.82429 15.2382 9.75521 14.4173 9.97961 14.318C9.98168 14.3195 9.98342 14.3218 9.98525 14.3236C10.028 14.3704 10.0315 14.5342 10.1596 14.6819C10.3606 14.9537 10.7871 15.1211 11.2022 15.0173C11.8983 14.7657 12.2994 14.2914 12.7078 13.7649C12.7661 13.6799 12.8575 13.6131 12.9422 13.6788C13.2229 14.3069 14.0317 14.754 15.0779 14.8C15.3199 14.5055 15.2042 14.3608 15.1061 14.2993C15.0756 14.2794 14.5858 14.0884 14.5096 13.8983C14.4618 13.7213 14.5781 13.5642 14.8116 13.4462C15.4831 13.365 16.1435 13.2748 16.7821 13.0694C16.7886 12.8547 16.9152 12.5339 16.9998 12.3944C17.0584 12.2977 17.0962 12.2881 17.1103 12.2743C17.1109 12.274 17.1117 12.2729 17.1123 12.2725C17.1123 12.2722 17.1141 12.2707 17.1141 12.2705C17.1144 12.2702 17.1156 12.269 17.1159 12.2687C17.1162 12.2681 17.1162 12.2655 17.1159 12.2649C17.1165 12.2608 17.1159 12.2535 17.1141 12.2462L17.0054 12.1826L14.8623 12.1733C14.8357 12.163 14.816 12.1527 14.8041 12.143C14.8032 12.1424 14.8011 12.1401 14.8002 12.1392C14.7999 12.139 14.7987 12.1378 14.7984 12.1375C14.7982 12.1372 14.797 12.136 14.7967 12.1357C14.7964 12.1348 14.7949 12.1325 14.7947 12.1319C14.7947 12.1316 14.7932 12.1301 14.7928 12.1298C14.7928 12.1298 14.7928 12.1284 14.7928 12.1281C14.7925 12.1278 14.7911 12.1263 14.7911 12.1263C14.7911 12.126 14.7908 12.1245 14.7911 12.1243C14.7911 12.1243 14.7908 12.1228 14.7911 12.1225C14.7911 12.1222 14.7908 12.1207 14.7911 12.1204C14.7908 12.1202 14.7911 12.119 14.7911 12.1187C14.7911 12.1187 14.7911 12.1172 14.7911 12.1169C14.7908 12.1166 14.7911 12.1151 14.7911 12.1149C14.7908 12.1149 14.7911 12.1134 14.7911 12.1131C14.7908 12.1128 14.7911 12.1113 14.7911 12.1113C14.7914 12.1108 14.7925 12.1096 14.7928 12.1093C14.7935 12.1084 14.794 12.1067 14.7947 12.1055C14.8052 12.0914 14.8307 12.0782 14.8623 12.0662C15.3738 11.9965 16.2832 11.8474 16.3436 10.9732C16.3342 10.5175 16.1487 10.2193 15.5898 10.1367C15.179 10.1686 14.8863 10.5656 14.9335 11.003C14.9139 11.1208 14.9734 11.3519 14.8529 11.378C14.0651 11.4501 13.2056 11.9435 13.1766 12.2968C13.1763 12.2968 13.1748 12.2968 13.1748 12.2968C13.1745 12.2971 13.173 12.2983 13.1728 12.2985C13.1721 12.2988 13.1701 12.3 13.1689 12.3006C13.1683 12.3006 13.166 12.3006 13.1654 12.3006C13.164 12.3009 13.161 12.302 13.1598 12.3023C13.1592 12.3023 13.1583 12.3023 13.1578 12.3023C13.1566 12.3023 13.1548 12.3023 13.154 12.3023C13.1537 12.3023 13.1528 12.3023 13.1522 12.3023C13.1514 12.3023 13.149 12.3023 13.1484 12.3023C13.1464 12.302 13.1428 12.3009 13.1411 12.3006C13.0898 12.2862 13.0236 12.2018 13.0342 12.0829C13.004 11.4723 12.8053 10.7815 12.4942 10.2492C12.3829 10.1382 12.3346 10.0934 12.3029 10.0881C12.3017 10.0878 12.3 10.0881 12.2991 10.0881C12.2977 10.0881 12.2953 10.0881 12.2935 10.0881C12.2932 10.0881 12.2918 10.0881 12.2915 10.0881C12.2915 10.0881 12.29 10.0881 12.2897 10.0881C12.2894 10.0881 12.288 10.0881 12.288 10.0881L12.2877 10.0881ZM21.9849 9.27975C21.8636 9.2739 21.7347 9.35244 21.7019 9.51795C21.7022 9.61551 21.7458 9.66942 21.7374 9.75786C21.7248 9.80856 21.6726 9.84201 21.5481 9.78222C21.5674 9.76428 21.4675 9.62286 21.4675 9.62286C21.3702 9.56367 21.2405 9.62607 21.1561 9.68112C21.1098 9.76548 21.0752 9.91026 21.1279 10.0579C21.2674 10.3154 21.7455 10.7551 21.9737 10.7593C21.9778 10.5269 22.0004 10.2182 22.013 10.026C22.0183 9.95361 22.0353 9.8736 22.105 9.85545C22.1744 9.8373 22.2948 9.92517 22.296 9.84987C22.2834 9.70188 22.2538 9.48396 22.1706 9.38112C22.1279 9.31785 22.0576 9.28326 21.9849 9.27975ZM10.27 9.2256C10.2395 9.22239 10.1997 9.23349 10.1537 9.26103C9.93545 9.37917 9.85106 9.72924 9.98669 9.93429C10.1139 10.1147 10.3145 10.0485 10.3412 10.0485C10.555 10.0752 10.6825 9.64749 10.6825 9.64749C10.6825 9.64749 10.689 9.52704 10.4349 9.75417C10.328 9.77436 10.3137 9.73572 10.2867 9.67563C10.2644 9.56427 10.2694 9.45126 10.3207 9.3399C10.3441 9.27309 10.3206 9.23058 10.27 9.2256ZM18.5572 9.14298C18.5127 9.1506 18.4696 9.18924 18.454 9.2499C18.4441 9.28941 18.4731 9.35361 18.4371 9.3735C18.4165 9.39432 18.3363 9.38235 18.3395 9.27246C18.3395 9.2373 18.314 9.1989 18.2985 9.17664C18.2827 9.16641 18.2721 9.1635 18.244 9.1635C18.2097 9.16494 18.2103 9.174 18.1916 9.20301C18.1837 9.23235 18.1728 9.26127 18.1728 9.29475C18.1684 9.33399 18.1547 9.34716 18.126 9.35301C18.0937 9.35301 18.0996 9.35652 18.0735 9.33984C18.058 9.32289 18.0395 9.31611 18.0395 9.2874C18.0395 9.25755 18.0319 9.20946 18.0228 9.18984C18.0091 9.17169 17.9874 9.16431 17.9628 9.15789C17.828 9.15849 17.8201 9.3114 17.8277 9.36975C17.8177 9.38085 17.8107 9.65715 17.9947 9.73359C18.2414 9.8514 18.706 9.7995 18.6864 9.40164C18.6864 9.36654 18.6767 9.24843 18.6735 9.21594C18.6483 9.15735 18.6017 9.13539 18.5572 9.14298ZM16.7422 8.2506C16.7528 8.29746 16.7633 8.34498 16.7704 8.39298C16.7938 8.49699 16.8143 8.6001 16.836 8.70234C16.7449 8.57691 16.6696 8.4759 16.6371 8.43984C16.4311 8.19525 16.6418 8.27904 16.7422 8.2506ZM24.6207 8.05548C24.5053 8.0514 24.3796 8.139 24.4294 8.31039C24.4004 8.40414 24.6755 8.72169 24.7201 8.89539C24.7602 9.01905 24.6591 9.41745 24.7426 9.45414C24.8194 9.49539 24.9275 9.17904 24.9676 8.886C24.9899 8.72577 24.8709 8.16297 24.6694 8.0628C24.6542 8.05869 24.6372 8.05605 24.6207 8.05548ZM10.3707 7.686C10.4282 7.68015 10.4979 7.73316 10.5319 7.80786C10.5682 7.88787 10.55 7.96407 10.4906 7.97868C10.4314 7.99305 10.3546 7.94031 10.3183 7.86036C10.282 7.78065 10.3002 7.70241 10.3593 7.68807C10.3631 7.6869 10.367 7.6863 10.3707 7.686ZM18.0524 7.41621C17.9261 7.4124 17.7861 7.49211 17.8406 7.65057C17.8089 7.7367 18.1124 8.02995 18.1614 8.19051C18.2493 8.4369 18.094 8.67216 18.1857 8.70615C18.27 8.74425 18.3873 8.4516 18.4312 8.18115C18.4822 7.9623 18.326 7.51431 18.1051 7.42179C18.0881 7.41765 18.0706 7.41654 18.0524 7.41621ZM8.19221 7.41039C8.15651 7.41504 8.11697 7.43529 8.07035 7.44609C7.91714 7.49475 7.77386 7.62711 7.81901 7.88496C8.00006 8.98476 8.11814 9.8241 8.29886 10.9242C8.3267 11.0531 8.21891 11.2228 8.07971 11.2055C7.84301 11.0453 7.78412 10.7209 7.38011 10.7347C7.08776 10.7382 6.7544 11.0567 6.71276 11.3631C6.6641 11.6066 6.64655 11.8705 6.71276 12.0829C6.91814 12.3302 7.1645 12.3038 7.38011 12.2479C7.55771 12.1749 7.70387 12 7.7666 12.0416C7.7666 12.0419 7.76834 12.0416 7.76834 12.0416C7.76864 12.0419 7.76834 12.0434 7.76834 12.0437C7.80701 12.1113 7.76483 12.6835 6.93224 13.1253C6.42038 13.3553 6.01316 13.4101 5.79404 12.9923C5.65808 12.7313 5.80403 11.7369 5.46974 11.9666C4.48124 14.5145 7.78565 14.8705 8.1545 12.0718C8.1785 11.9926 8.25146 11.9136 8.3027 11.9329C8.32526 11.9425 8.34605 11.9731 8.35337 12.0305C8.27657 14.5646 5.79692 14.7381 5.37596 13.9409C5.27135 13.7531 5.24 13.3348 5.22971 13.0843C5.21042 12.9325 5.17232 12.8452 5.12837 12.8104C5.02787 12.735 4.89278 12.9319 4.86407 13.2735C4.82219 13.5486 4.83392 13.6239 4.83392 13.8885C4.96634 15.89 8.15738 15.0302 8.67593 13.3766C8.93258 12.5221 8.67059 11.8772 8.75648 11.7979C8.75711 11.7973 8.75942 11.7967 8.76032 11.7961C8.76086 11.7955 8.76323 11.7947 8.76383 11.7943C8.76497 11.7937 8.76677 11.7925 8.76758 11.7923C8.77052 11.7917 8.77553 11.7905 8.77907 11.7905C9.09572 12.1318 9.54017 11.8339 9.63773 11.7155C9.67937 11.6563 9.78392 11.6183 9.85718 11.6948C10.1041 11.8726 10.5371 11.7888 10.6277 11.4756C10.6798 11.1691 10.724 10.8539 10.7346 10.5266C10.5734 10.5767 10.4437 10.6142 10.3915 10.6693C10.3789 10.6828 10.3699 10.6981 10.3669 10.7141C10.3531 10.8047 10.3396 10.8955 10.3259 10.986C10.3241 10.9936 10.3218 11.0006 10.3183 11.0068C10.3115 11.0179 10.3001 11.0282 10.2884 11.0349C10.2313 11.066 10.1323 11.0481 10.1269 10.9655C10.0505 10.6174 9.73529 10.5721 9.54395 11.1117C9.41504 11.216 9.18005 11.2365 9.15578 11.0798C9.18713 10.718 9.04124 10.6693 8.74883 10.8398C8.65478 10.123 8.56166 9.43827 8.46758 8.72109C8.58944 8.71755 8.70143 8.80605 8.81273 8.66691C8.69207 8.29191 8.43713 7.52901 8.29331 7.45755C8.29211 7.45692 8.29067 7.45605 8.28947 7.45548C8.28302 7.44789 8.27543 7.44054 8.26898 7.43496C8.26634 7.43265 8.26223 7.42941 8.25962 7.42734C8.25698 7.42557 8.25287 7.42326 8.25026 7.42176C8.24441 7.41855 8.23709 7.41618 8.23151 7.41441C8.21834 7.41066 8.20574 7.40886 8.192 7.41066L8.19221 7.41039ZM5.66276 7.40685C5.59304 7.41474 5.5274 7.47159 5.49575 7.54749C5.48435 7.81497 5.48261 8.08248 5.51276 8.32917C5.63462 8.76186 5.67305 9.14238 5.73221 9.58542C5.74856 10.1789 5.38937 9.84228 5.40581 9.54792C5.48876 9.16587 5.46647 8.56437 5.39261 8.41176C5.33435 8.25942 5.2667 8.22162 5.12456 8.24682C5.01176 8.23977 4.72052 8.55741 4.63907 9.08292C4.63907 9.08292 4.57112 9.35277 4.54157 9.59301C4.50167 9.86457 4.32182 10.0568 4.19642 9.55551C4.08803 9.19134 4.02152 8.29368 3.84017 8.50374C3.78833 9.20454 3.72653 10.4376 4.32209 10.5642C5.04248 10.6336 4.64435 9.34662 4.90508 9.11313C4.95458 8.99769 5.04572 8.99562 5.05334 9.14127V10.2344C5.04689 10.5897 5.28068 10.6952 5.46203 10.7687C5.65103 10.7541 5.77613 10.7594 5.8502 10.943C5.87975 11.5733 5.91059 12.2048 5.94014 12.835C5.94014 12.835 6.37694 12.9605 6.39779 11.7719C6.41855 11.074 6.25859 10.4881 6.35264 10.3524C6.35615 10.2191 6.52694 10.2124 6.64529 10.2774C6.83339 10.4102 6.91694 10.5736 7.20959 10.508C7.65488 10.3856 7.92299 10.1693 7.92968 9.82743C7.90364 9.50253 7.86614 9.1773 7.72523 8.85243C7.74488 8.79324 7.63997 8.6397 7.65959 8.58057C7.73954 8.70597 7.86059 8.69544 7.88843 8.58057C7.81253 8.33097 7.69445 8.09163 7.50407 7.98819C7.34642 7.84932 7.11587 7.87863 7.03148 8.16807C6.99218 8.50149 7.15247 8.89698 7.39532 9.21987C7.44692 9.34608 7.51898 9.55617 7.48706 9.74487C7.35782 9.81867 7.22981 9.78792 7.12142 9.67362C7.12142 9.67362 6.76718 9.40848 6.76718 9.34932C6.86123 8.74728 6.78743 8.67813 6.73532 8.51112C6.69893 8.28057 6.58937 8.20737 6.50096 8.05002C6.41216 7.95597 6.29207 7.95597 6.23462 8.05002C6.07787 8.32161 6.15146 8.90436 6.26447 9.16566C6.34652 9.4056 6.47162 9.5556 6.41273 9.5556C6.36407 9.69123 6.26273 9.65961 6.18947 9.50316C6.08522 9.17946 6.06407 8.69691 6.06407 8.47926C6.03278 8.20971 5.99759 7.63371 5.82032 7.48752C5.77295 7.42299 5.71697 7.4004 5.66276 7.40685ZM19.071 7.35558C19.0461 7.35819 19.016 7.39629 18.9697 7.49445C18.8583 7.67664 18.7828 7.99425 18.7915 8.29131C19.0326 9.96006 19.1065 11.4205 19.2641 13.0895C19.277 13.251 19.2533 13.4854 19.146 13.5788C18.7491 13.9931 18.1769 14.5043 17.554 14.7395C17.487 14.8148 17.7207 15.1353 18.0228 15.1351C18.5282 15.0765 18.9723 14.7929 19.3842 14.0458C19.4944 13.8715 19.6877 13.4985 19.6936 13.2094C19.7319 11.5145 19.608 10.1968 19.354 8.97186C19.3379 8.85261 19.3488 8.71137 19.369 8.67567C19.4018 8.6367 19.5128 8.67657 19.5717 8.58012C19.6578 8.49198 19.3409 7.76076 19.161 7.47948C19.125 7.40889 19.103 7.35264 19.071 7.35558ZM10.4159 7.35201C10.3306 7.35642 10.2553 7.38075 10.1909 7.41387C10.0274 7.57056 9.98903 7.82166 10.1179 7.97811C10.2433 8.0373 10.3684 8.1636 10.2846 8.23326C9.93011 8.6118 9.00761 9.24465 8.96096 9.36006C8.96072 9.3609 8.95922 9.363 8.95922 9.3639C8.95892 9.36471 8.95922 9.36684 8.95922 9.36765C8.95922 9.36798 8.95892 9.36915 8.95922 9.36945C8.95952 9.37035 8.96042 9.37239 8.96096 9.37329C8.96126 9.37353 8.96246 9.37473 8.96276 9.37503C8.96306 9.37533 8.9645 9.37503 8.9648 9.37503C8.9651 9.37533 8.96627 9.37677 8.9666 9.37704C8.96714 9.37704 8.96804 9.37674 8.96861 9.37704C8.96861 9.37704 8.97011 9.37884 8.97035 9.37884C9.01721 9.41019 9.59471 9.40959 9.65855 9.38061C9.65885 9.38061 9.66002 9.37917 9.66035 9.37884H9.66236C9.66236 9.37884 9.66206 9.37704 9.66236 9.37704C9.86072 9.30384 10.8023 8.22747 10.8023 8.22747C10.7534 8.18589 10.7085 8.15508 10.6596 8.1132C10.6075 8.06808 10.6128 8.02353 10.6596 7.97814C10.8928 7.84248 10.819 7.54395 10.6971 7.40829C10.5963 7.3629 10.5012 7.34766 10.4159 7.35201ZM7.10471 7.34826C7.06025 7.35585 7.01711 7.39272 7.00157 7.45311C6.99167 7.49295 7.01858 7.55886 6.98282 7.57878C6.96206 7.59957 6.88382 7.58556 6.88706 7.47564C6.88706 7.44078 6.86153 7.40418 6.84605 7.38189C6.83021 7.37163 6.81971 7.36872 6.7916 7.36872C6.75731 7.37022 6.75785 7.37931 6.7391 7.40823C6.73064 7.43757 6.71981 7.46628 6.71981 7.49997C6.71567 7.53921 6.69986 7.55241 6.67115 7.55796C6.63896 7.55796 6.64655 7.56147 6.62045 7.54512C6.60491 7.52811 6.58679 7.52136 6.58679 7.49232C6.58679 7.46247 6.57887 7.41468 6.56984 7.39512C6.55634 7.37691 6.53465 7.36752 6.50975 7.36107C6.37499 7.3617 6.36533 7.51671 6.37295 7.57497C6.36296 7.58607 6.35795 7.86063 6.5417 7.9368C6.78866 8.05461 7.25126 8.00475 7.23161 7.60692C7.23161 7.57176 7.22396 7.45341 7.22045 7.42119C7.19531 7.3626 7.14866 7.34034 7.1042 7.34826H7.10471ZM20.0065 7.3125C19.9857 7.31631 19.9549 7.34799 19.8978 7.42326C19.7566 7.88466 19.7071 8.2617 19.761 8.54826C20.1234 10.4402 20.4949 12.1641 20.436 13.9649C20.6077 13.9661 20.8066 13.5718 20.8916 13.1813C20.9379 12.6437 20.8605 12.3161 20.8464 12C20.8327 11.6839 20.4887 9.11925 20.419 8.88015C20.3349 8.42784 20.7533 8.82069 20.7079 8.55765C20.5632 8.226 20.2019 7.74318 20.0891 7.45515C20.0466 7.37784 20.0414 7.30665 20.0065 7.3125ZM25.3051 7.28436C25.2805 7.287 25.2504 7.32681 25.2041 7.425C25.0927 7.60725 25.0544 7.93359 25.0989 8.22186C25.367 10.0342 25.5659 11.7888 25.6072 13.3951C25.584 13.5474 25.5773 13.6286 25.5058 13.8208C25.3476 14.0235 25.1733 14.2775 25.0089 14.4C24.8446 14.5225 24.4951 14.6393 24.3808 14.7302C24.0181 14.9396 24.0164 15.1808 24.3096 15.1895C24.8147 15.1307 25.4127 15.0893 25.8246 14.4677C25.9347 14.2934 26.0645 13.8211 26.0701 13.532C26.1087 11.8371 26.0484 10.1801 25.7947 8.95515C25.7783 8.83569 25.7255 8.5614 25.7457 8.5257C25.7786 8.44194 25.9438 8.53419 26.0027 8.43753C26.0891 8.34936 25.5752 7.69134 25.395 7.41009C25.3593 7.33941 25.3371 7.28145 25.3051 7.28436ZM4.4906 7.28202C4.38191 7.27881 4.26179 7.34646 4.30868 7.47711C4.28144 7.54836 4.52168 7.78911 4.56389 7.92129C4.60163 8.01564 4.52639 8.31915 4.60484 8.34696C4.67753 8.37831 4.7771 8.1369 4.81493 7.91397C4.83599 7.79181 4.82024 7.37337 4.53575 7.28757C4.52105 7.28436 4.50611 7.28235 4.4906 7.28202ZM22.7625 7.26327C22.732 7.25859 22.6986 7.2735 22.6611 7.32891C22.5896 7.39164 22.5126 7.50525 22.5149 7.6515C22.5322 7.90869 22.5782 8.17236 22.5955 8.42964C22.6016 8.46393 22.6081 8.49819 22.6142 8.53278C22.5867 8.49759 22.5624 8.47008 22.5486 8.45598C22.047 7.92894 22.7792 8.36988 22.4531 7.96263C22.1771 7.65999 22.0965 7.56363 21.8604 7.38138C21.742 7.30488 21.6705 7.15872 21.6319 7.40778C21.6163 7.62633 21.6002 7.87968 21.6149 8.06403C21.614 8.16657 21.7201 8.35932 21.8118 8.47269C22.1463 8.88372 22.4882 9.32142 22.8319 9.77787C22.9039 10.7086 22.9233 11.5621 22.9968 12.4946C22.9863 12.8936 22.8638 13.4233 22.7475 13.4734C22.7475 13.4734 22.5696 13.5753 22.451 13.462C22.3649 13.4274 22.0197 12.8865 22.0197 12.8865C21.8434 12.7246 21.7256 12.7708 21.5999 12.8865C21.2533 13.2211 21.0966 13.8478 20.8611 14.2797C20.8004 14.3761 20.6293 14.458 20.4392 14.272C19.9564 13.6123 20.2388 12.6733 20.1787 12.9147C19.7487 13.3993 19.9391 14.2026 20.0361 14.3752C20.1779 14.6591 20.2927 14.8407 20.5687 14.981C20.82 15.1659 21.0157 15.0504 21.1236 14.9209C21.3767 14.6588 21.3799 13.9885 21.4986 13.856C21.582 13.6123 21.7906 13.6542 21.8923 13.7623C21.991 13.9041 22.1073 13.9964 22.2524 14.0734C22.4882 14.2814 22.7697 14.3192 23.0475 14.1297C23.237 14.0233 23.3601 13.885 23.4711 13.6123C23.5904 13.2935 23.5315 11.6236 23.5048 10.6946C23.6829 10.9456 23.859 11.202 24.0336 11.4615C24.1104 12.2769 24.1452 13.0799 24.1197 13.8501C24.1019 14.0033 24.6541 13.3931 24.6506 13.1039C24.648 12.8511 24.6509 12.6217 24.6506 12.4084C24.9184 12.8361 25.1779 13.2712 25.4229 13.7115C25.5749 13.631 25.5228 12.7708 25.4267 12.6522C25.17 12.2213 24.8413 11.756 24.5867 11.3959C24.5363 10.9413 24.4678 10.4051 24.4367 10.2408C24.3881 9.98472 24.3395 9.59976 24.2662 9.29592C24.246 9.17697 24.1851 8.79792 24.2041 8.76156C24.2343 8.67666 24.3474 8.7642 24.403 8.6658C24.4865 8.57499 24.1139 7.60995 23.9249 7.33455C23.8569 7.21119 23.7339 7.25397 23.5818 7.4547C23.4406 7.58649 23.4922 7.88796 23.5461 8.17449C23.6861 8.90484 23.8109 9.64896 23.91 10.3908C23.7268 10.1189 23.5036 9.7896 23.2836 9.47205C23.2777 9.4416 23.2554 9.3294 23.2554 9.32763C23.2554 9.3147 23.2253 8.73024 23.1992 8.5908C23.1945 8.53425 23.181 8.51814 23.2405 8.52516C23.3032 8.5782 23.3117 8.58081 23.351 8.59842C23.4145 8.61012 23.4699 8.5026 23.4318 8.40327C23.2355 8.04144 23.0392 7.67787 22.8429 7.31577C22.8193 7.29255 22.7929 7.26798 22.7625 7.26327ZM15.6823 7.19004C15.6196 7.19586 15.5698 7.23255 15.551 7.3251C15.5261 7.54308 15.539 7.6614 15.5756 7.84275C15.6035 7.9635 15.7795 8.16591 15.8663 8.28339C16.2799 8.83944 16.6781 9.39819 17.0625 9.97653C17.1228 10.4057 17.167 10.8258 17.1955 11.2439C17.2579 12.1609 17.2769 13.3026 17.2201 14.2682C17.3918 14.2752 17.6671 13.9908 17.7638 13.5748C17.8265 12.9988 17.7413 11.824 17.7357 11.4841C17.7316 11.3429 17.7228 11.1745 17.7131 10.9984C18.1602 11.7291 18.5941 12.5034 19.0198 13.3533C19.1751 13.2795 19.1408 12.4055 19.05 12.2828C18.7089 11.5491 18.2381 10.8249 18.0881 10.5463C18.0339 10.4458 17.8494 10.1652 17.6305 9.84144C17.5904 9.37947 17.5464 8.9883 17.518 8.87028C17.4477 8.38188 17.7187 8.92533 17.6812 8.64144C17.5933 8.15364 17.3241 7.82229 17.0062 7.3758C16.9036 7.23048 16.9057 7.20093 16.7475 7.41123C16.6529 7.62603 16.654 7.80444 16.6818 7.97199C16.6402 7.9116 16.5887 7.83987 16.5149 7.7508C16.2404 7.51524 16.2234 7.50237 15.9954 7.31016C15.9237 7.25919 15.7869 7.18068 15.6825 7.19004H15.6823ZM13.2937 7.14696C13.2328 7.15221 13.1651 7.2234 13.11 7.36086C13.0626 7.46514 13.0048 8.0115 13.0142 8.0115C12.9765 8.1741 13.1842 8.24298 13.2788 8.03409C13.4203 7.65093 13.4212 7.4877 13.4305 7.3251C13.4086 7.2015 13.3546 7.14174 13.2937 7.14696ZM13.9406 7.09659C13.9014 7.10184 13.8533 7.15221 13.7868 7.27299C13.7391 7.39923 13.533 7.59084 13.6816 7.98549C13.8032 8.23569 13.853 8.64228 13.7979 9.09549C13.7139 9.2241 13.6945 9.26865 13.5843 9.39729C13.4291 9.56403 13.2612 9.52152 13.1323 9.45912C13.0119 9.37797 12.9172 9.33633 12.8625 9.07854C12.8724 8.66748 12.8962 7.99518 12.8212 7.85214C12.7105 7.63128 12.5279 7.71039 12.45 7.77714C12.075 8.11998 11.8898 8.69853 11.7767 9.15909C11.6728 9.49455 11.562 9.39756 11.4844 9.26223C11.2949 9.08469 11.2816 7.69719 11.0531 7.9254C10.6869 8.97189 11.2632 10.118 11.6625 10.0067C11.9505 10.1259 12.1333 9.57774 12.2511 8.97714C12.3319 8.80872 12.3934 8.78934 12.4348 8.87613C12.4242 9.67443 12.4921 9.85257 12.6973 10.0949C13.1551 10.4479 13.534 10.1396 13.5636 10.1098L13.9198 9.75354C13.9992 9.67008 14.1041 9.66507 14.216 9.73863C14.325 9.83763 14.3109 10.0081 14.5441 10.1268C14.7404 10.2053 15.1597 10.1458 15.2566 9.97677C15.3876 9.7524 15.4192 9.67533 15.4799 9.59037C15.5733 9.46614 15.733 9.52122 15.733 9.56052C15.7181 9.62967 15.6243 9.69822 15.6879 9.82302C15.7989 9.90618 15.825 9.85257 15.8906 9.83412C16.123 9.72312 16.2973 9.21918 16.2973 9.21918C16.3078 9.03108 16.2009 9.04542 16.1323 9.08412C16.0433 9.13863 16.0377 9.15708 15.9486 9.21153C15.835 9.22854 15.615 9.30354 15.5063 9.13479C15.3949 8.93205 15.3944 8.64933 15.3094 8.44488C15.3094 8.42988 15.1606 8.12319 15.298 8.10354C15.3674 8.11644 15.5165 8.15478 15.54 8.03028C15.6126 7.90902 15.3829 7.56474 15.2268 7.39104C15.0912 7.24218 14.9039 7.22403 14.7223 7.37613C14.5954 7.49301 14.6142 7.62339 14.5893 7.74729C14.5571 7.88934 14.5632 8.06544 14.7074 8.25354C14.8342 8.50374 15.0648 8.82453 14.9886 9.27714C14.9886 9.27714 14.8547 9.49278 14.6192 9.46464C14.521 9.44328 14.3613 9.4008 14.2761 8.77299C14.2119 8.29746 14.2922 7.63155 14.0907 7.31985C14.0449 7.20201 14.0059 7.0878 13.9406 7.09659ZM11.8968 7.08549C11.8734 7.08459 11.8388 7.09779 11.7899 7.12674C11.68 7.2003 11.4627 7.42674 11.4562 7.68723C11.4495 7.83429 11.4216 7.83372 11.518 7.92714C11.5875 8.02767 11.6569 8.01768 11.7975 7.94415C11.8781 7.88469 11.9053 7.84689 11.9323 7.74729C11.9657 7.58028 11.7565 7.82643 11.7298 7.64037C11.6832 7.46778 11.8166 7.39692 11.9437 7.22988C11.9466 7.1511 11.9479 7.0869 11.8968 7.08549Z" fill="white"/>
</g>
</g>
<defs>
<clipPath id="clip0_11_66">
<rect width="30" height="30" fill="white"/>
</clipPath>
</defs>
</svg>
